HIERARCHY
ROOT root
{
  OFFSET 0 87.9003 0
  CHANNELS 6 Xposition Yposition Zposition Zrotation Xrotation Yrotation
  JOINT torso_1
  {
    OFFSET 0 4.78511 -1.08482
    CHANNELS 6 Xposition Yposition Zposition Zrotation Xrotation Yrotation
    JOINT torso_2
    {
      OFFSET 0 5.29195 1.00949
      CHANNELS 6 Xposition Yposition Zposition Zrotation Xrotation Yrotation
      JOINT torso_3
      {
        OFFSET -9.66735e-18 5.64355 0.108362
        CHANNELS 6 Xposition Yposition Zposition Zrotation Xrotation Yrotation
        JOINT torso_4
        {
          OFFSET -1.04072e-17 6.12977 -0.417886
          CHANNELS 6 Xposition Yposition Zposition Zrotation Xrotation Yrotation
          JOINT torso_5
          {
            OFFSET -1.85891e-17 7.16586 -1.41888
            CHANNELS 6 Xposition Yposition Zposition Zrotation Xrotation Yrotation
            JOINT torso_6
            {
              OFFSET -2.38665e-17 8.94839 -0.861631
              CHANNELS 6 Xposition Yposition Zposition Zrotation Xrotation Yrotation
              JOINT torso_7
              {
                OFFSET -2.73615e-17 9.94144 1.48576
                CHANNELS 6 Xposition Yposition Zposition Zrotation Xrotation Yrotation
                JOINT neck_1
                {
                  OFFSET -1.21725e-17 4.50977 0.67399
                  CHANNELS 6 Xposition Yposition Zposition Zrotation Xrotation Yrotation
                  JOINT neck_2
                  {
                    OFFSET -1.70689e-17 4.54241 0.39741
                    CHANNELS 6 Xposition Yposition Zposition Zrotation Xrotation Yrotation
                    JOINT head
                    {
                      OFFSET -1.89342e-17 4.5512 0.720839
                      CHANNELS 6 Xposition Yposition Zposition Zrotation Xrotation Yrotation
                      End Site
                      {
                        OFFSET 0 0.1 0
                      }
                    }
                  }
                }
                JOINT l_shoulder
                {
                  OFFSET 1.16172 -7.16758 7.09827
                  CHANNELS 6 Xposition Yposition Zposition Zrotation Xrotation Yrotation
                  JOINT l_up_arm
                  {
                    OFFSET 12.2059 3.06167 -3.07978
                    CHANNELS 6 Xposition Yposition Zposition Zrotation Xrotation Yrotation
                    JOINT l_low_arm
                    {
                      OFFSET 27.5197 0.056351 0.129118
                      CHANNELS 6 Xposition Yposition Zposition Zrotation Xrotation Yrotation
                      JOINT l_hand
                      {
                        OFFSET 22.8331 0.0467536 0.107129
                        CHANNELS 6 Xposition Yposition Zposition Zrotation Xrotation Yrotation
                        End Site
                        {
                          OFFSET 0.1 0 0
                        }
                      }
                    }
                  }
                }
                JOINT r_shoulder
                {
                  OFFSET -1.16172 -7.16756 7.09818
                  CHANNELS 6 Xposition Yposition Zposition Zrotation Xrotation Yrotation
                  JOINT r_up_arm
                  {
                    OFFSET -12.2059 3.06167 -3.07978
                    CHANNELS 6 Xposition Yposition Zposition Zrotation Xrotation Yrotation
                    JOINT r_low_arm
                    {
                      OFFSET -27.5197 0.056351 0.129118
                      CHANNELS 6 Xposition Yposition Zposition Zrotation Xrotation Yrotation
                      JOINT r_hand
                      {
                        OFFSET -22.8331 0.0467534 0.107129
                        CHANNELS 6 Xposition Yposition Zposition Zrotation Xrotation Yrotation
                        End Site
                        {
                          OFFSET -0.1 0 0
                        }
                      }
                    }
                  }
                }
              }
            }
          }
        }
      }
    }
  }
  JOINT l_up_leg
  {
    OFFSET 8.70282 -3.96247 1.9152
    CHANNELS 6 Xposition Yposition Zposition Zrotation Xrotation Yrotation
    JOINT l_low_leg
    {
      OFFSET -0.803084 -36.5309 -0.617314
      CHANNELS 6 Xposition Yposition Zposition Zrotation Xrotation Yrotation
      JOINT l_foot
      {
        OFFSET -2.19176 -38.0664 -5.69911
        CHANNELS 6 Xposition Yposition Zposition Zrotation Xrotation Yrotation
        JOINT l_toes
        {
          OFFSET 0.734061 -9.31305 11.7736
          CHANNELS 6 Xposition Yposition Zposition Zrotation Xrotation Yrotation
          End Site
          {
            OFFSET 0 0 0.1
          }
        }
      }
    }
  }
  JOINT r_up_leg
  {
    OFFSET -8.70282 -3.96247 1.9152
    CHANNELS 6 Xposition Yposition Zposition Zrotation Xrotation Yrotation
    JOINT r_low_leg
    {
      OFFSET 0.803084 -36.5309 -0.617314
      CHANNELS 6 Xposition Yposition Zposition Zrotation Xrotation Yrotation
      JOINT r_foot
      {
        OFFSET 2.19176 -38.0664 -5.69911
        CHANNELS 6 Xposition Yposition Zposition Zrotation Xrotation Yrotation
        JOINT r_toes
        {
          OFFSET -0.734061 -9.31305 11.7736
          CHANNELS 6 Xposition Yposition Zposition Zrotation Xrotation Yrotation
          End Site
          {
            OFFSET 0 0 0.1
          }
        }
      }
    }
  }
}
MOTION
Frames: 4
Frame Time: 0.020000
24.8259 84.6911 -74.0302 7.19478 2.99322 22.9145 0 4.78511 -1.08482 -1.38327 2.72916 5.64311 0 5.29195 1.00949 -1.96846 2.50012 5.67577 -9.66735e-18 5.64355 0.108362 -2.16757 2.55095 5.83437 -1.04072e-17 6.12977 -0.417886 -2.39765 2.02533 6.0865 -1.85891e-17 7.16586 -1.41888 -1.2507 1.73189 6.56947 -2.38665e-17 8.94839 -0.861631 1.30954 0.0630556 6.9768 -2.73615e-17 9.94144 1.48576 0.193398 0.940858 0.132384 -1.21725e-17 4.50977 0.67399 -7.46832 -13.5231 -20.1547 -1.70689e-17 4.54241 0.39741 3.15291 -5.14628 -9.08817 -1.89342e-17 4.5512 0.720839 -0.0656355 1.52702 -12.8824 1.16172 -7.16758 7.09827 -3.79325 7.44969 -6.42717 12.2059 3.06167 -3.07978 -100.54 43.5248 15.2445 27.5197 0.056351 0.129118 4.39367 -0.817015 -21.6519 22.8331 0.0467536 0.107129 0.768766 -30.6217 -5.83008 -1.16172 -7.16756 7.09818 -2.59775 6.07465 3.57222 -12.2059 3.06167 -3.07978 14.0018 61.4447 90.5762 -27.5197 0.056351 0.129118 -6.28667 -1.75794 31.8116 -22.8331 0.0467534 0.107129 2.41006 4.58986 6.39166 8.70282 -3.96247 1.9152 -1.44337 -14.4371 -40.1532 -0.803084 -36.5309 -0.617314 -2.97301 11.0258 0.0939137 -2.19176 -38.0664 -5.69911 -12.9803 -5.1257 17.1959 0.734061 -9.31305 11.7736 2.48481e-17 -7.95139e-16 1.2424e-17 -8.70282 -3.96247 1.9152 -29.8138 -0.0863184 -6.74296 0.803084 -36.5309 -0.617314 3.27765 12.1306 -0.135764 2.19176 -38.0664 -5.69911 13.426 -3.65959 -16.4817 -0.734061 -9.31305 11.7736 -9.93923e-16 -5.46658e-16 -1.27222e-14 
24.8633 84.7027 -74.2458 6.85474 3.20636 21.7588 0 4.78511 -1.08482 -1.34441 2.54891 5.52714 0 5.29195 1.00949 -1.91353 2.36872 5.56507 -9.66735e-18 5.64355 0.108362 -2.09515 2.48037 5.72303 -1.04072e-17 6.12977 -0.417886 -2.31192 2.05839 5.97081 -1.85891e-17 7.16586 -1.41888 -1.17697 1.79478 6.4225 -2.38665e-17 8.94839 -0.861631 1.31334 0.191273 6.76336 -2.73615e-17 9.94144 1.48576 0.193022 0.921435 0.113612 -1.21725e-17 4.50977 0.67399 -6.80809 -12.6032 -19.4123 -1.70689e-17 4.54241 0.39741 3.32132 -5.40375 -8.78002 -1.89342e-17 4.5512 0.720839 0.0190917 0.491956 -12.5784 1.16172 -7.16758 7.09827 -3.27654 7.10192 -5.85629 12.2059 3.06167 -3.07978 -99.0582 42.3978 14.9342 27.5197 0.056351 0.129118 4.24574 -0.760313 -20.8903 22.8331 0.0467536 0.107129 0.994702 -28.7474 -6.27073 -1.16172 -7.16756 7.09818 -2.65553 5.92366 3.1751 -12.2059 3.06167 -3.07978 16.1679 61.4133 88.3745 -27.5197 0.056351 0.129118 -6.12199 -1.65882 30.8902 -22.8331 0.0467534 0.107129 1.113 2.20132 6.1363 8.70282 -3.96247 1.9152 -1.07668 -15.0413 -39.3681 -0.803084 -36.5309 -0.617314 -3.10202 11.4946 0.110918 -2.19176 -38.0664 -5.69911 -12.9153 -5.2969 17.1941 0.734061 -9.31305 11.7736 2.48481e-17 -7.95139e-16 1.2424e-17 -8.70282 -3.96247 1.9152 -29.7142 -1.45621 -6.31393 0.803084 -36.5309 -0.617314 3.40189 12.5789 -0.154516 2.19176 -38.0664 -5.69911 13.4546 -3.47477 -16.5674 -0.734061 -9.31305 11.7736 -1.33718e-15 -5.35931e-16 -1.27115e-14 
24.878 84.7664 -74.389 6.63487 3.03532 20.0773 0 4.78511 -1.08482 -1.43679 2.46503 5.39884 0 5.29195 1.00949 -1.95652 2.28154 5.42125 -9.66735e-18 5.64355 0.108362 -2.09473 2.42956 5.57417 -1.04072e-17 6.12977 -0.417886 -2.26601 2.04077 5.80882 -1.85891e-17 7.16586 -1.41888 -1.12051 1.78144 6.23925 -2.38665e-17 8.94839 -0.861631 1.31714 0.205079 6.50927 -2.73615e-17 9.94144 1.48576 0.185696 0.908208 0.0899162 -1.21725e-17 4.50977 0.67399 -6.05785 -11.2923 -18.6969 -1.70689e-17 4.54241 0.39741 3.47921 -5.57943 -8.49575 -1.89342e-17 4.5512 0.720839 0.666592 -0.619841 -11.781 1.16172 -7.16758 7.09827 -2.8434 6.80042 -5.27073 12.2059 3.06167 -3.07978 -96.7462 39.9208 14.6567 27.5197 0.056351 0.129118 4.13087 -0.717828 -20.3014 22.8331 0.0467536 0.107129 1.02588 -27.152 -6.82551 -1.16172 -7.16756 7.09818 -2.87141 5.74524 2.62828 -12.2059 3.06167 -3.07978 19.3345 61.9075 85.5578 -27.5197 0.056351 0.129118 -5.98709 -1.58027 30.1417 -22.8331 0.0467534 0.107129 -0.809147 1.71765 5.71709 8.70282 -3.96247 1.9152 -0.38326 -14.908 -38.1051 -0.803084 -36.5309 -0.617314 -3.11336 11.5357 0.112464 -2.19176 -38.0664 -5.69911 -12.6546 -5.2805 17.1443 0.734061 -9.31305 11.7736 2.48481e-17 -7.95139e-16 1.2424e-17 -8.70282 -3.96247 1.9152 -29.4509 -2.66386 -5.35309 0.803084 -36.5309 -0.617314 3.48235 12.8685 -0.167179 2.19176 -38.0664 -5.69911 13.4052 -3.04207 -16.6721 -0.734061 -9.31305 11.7736 6.68042e-16 -6.20048e-16 -1.27956e-14 
24.9003 84.8321 -74.5695 6.3835 2.94959 18.2312 0 4.78511 -1.08482 -1.53926 2.1883 5.20545 0 5.29195 1.00949 -1.99918 2.06878 5.19851 -9.66735e-18 5.64355 0.108362 -2.08829 2.32023 5.33422 -1.04072e-17 6.12977 -0.417886 -2.21017 2.08796 5.54368 -1.85891e-17 7.16586 -1.41888 -1.07102 1.90284 5.94839 -2.38665e-17 8.94839 -0.861631 1.27453 0.429983 6.15208 -2.73615e-17 9.94144 1.48576 0.169533 0.87955 0.05114 -1.21725e-17 4.50977 0.67399 -5.12721 -9.61554 -17.7822 -1.70689e-17 4.54241 0.39741 3.70198 -5.87152 -8.13173 -1.89342e-17 4.5512 0.720839 1.45627 -2.145 -10.7148 1.16172 -7.16758 7.09827 -2.42207 6.28432 -4.45166 12.2059 3.06167 -3.07978 -94.1813 36.7501 14.4317 27.5197 0.056351 0.129118 4.0851 -0.701273 -20.0673 22.8331 0.0467536 0.107129 0.965389 -26.4508 -7.14697 -1.16172 -7.16756 7.09818 -3.44808 5.3151 1.66805 -12.2059 3.06167 -3.07978 23.6052 62.4644 82.2443 -27.5197 0.056351 0.129118 -5.86417 -1.51073 29.4643 -22.8331 0.0467534 0.107129 -2.74814 3.94523 5.05789 8.70282 -3.96247 1.9152 0.350761 -14.8737 -36.6104 -0.803084 -36.5309 -0.617314 -3.1402 11.6331 0.116153 -2.19176 -38.0664 -5.69911 -12.6961 -5.33012 17.1377 0.734061 -9.31305 11.7736 7.1136e-16 -7.62958e-16 -1.97562e-17 -8.70282 -3.96247 1.9152 -29.1542 -4.08319 -4.2245 0.803084 -36.5309 -0.617314 3.57049 13.1851 -0.181515 2.19176 -38.0664 -5.69911 13.3281 -2.53464 -16.7669 -0.734061 -9.31305 11.7736 -1.06561e-15 -5.47812e-16 -1.27234e-14 
